<?xml version="1.0" encoding="UTF-8"?>
<svg id="Lager_2" data-name="Lager 2" xmlns="http://www.w3.org/2000/svg" xmlns:xlink="http://www.w3.org/1999/xlink" viewBox="0 0 307.54 140.39">
  <defs>
    <style>
      .cls-1 {
        fill: #f39200;
      }

      .cls-2 {
        fill: #1d1d1b;
      }

      .cls-3 {
        fill: url(#Namnlös_övertoning_2);
      }

      .cls-4 {
        fill: url(#Ny_övertoningsruta_1-3);
      }

      .cls-5 {
        fill: url(#Ny_övertoningsruta_1-4);
      }

      .cls-6 {
        fill: url(#Ny_övertoningsruta_1-5);
      }

      .cls-7 {
        fill: url(#Ny_övertoningsruta_1-6);
      }

      .cls-8 {
        fill: url(#Ny_övertoningsruta_1-2);
      }

      .cls-9 {
        fill: url(#Ny_övertoningsruta_1);
      }
    </style>
    <linearGradient id="Ny_övertoningsruta_1" data-name="Ny övertoningsruta 1" x1="313.47" y1="-11.9" x2="-33.55" y2="87.52" gradientUnits="userSpaceOnUse">
      <stop offset=".18" stop-color="#fdc800"/>
      <stop offset=".66" stop-color="#f18f34"/>
    </linearGradient>
    <linearGradient id="Ny_övertoningsruta_1-2" data-name="Ny övertoningsruta 1" x1="317.68" y1="3.58" x2="-29.34" y2="102.99" xlink:href="#Ny_övertoningsruta_1"/>
    <linearGradient id="Namnlös_övertoning_2" data-name="Namnlös övertoning 2" x1="315.69" y1="-4.26" x2="-31.33" y2="95.16" gradientUnits="userSpaceOnUse">
      <stop offset=".65" stop-color="#f18f34"/>
      <stop offset=".88" stop-color="#fdc800"/>
    </linearGradient>
    <linearGradient id="Ny_övertoningsruta_1-3" data-name="Ny övertoningsruta 1" x1="319.9" y1="11.22" x2="-27.12" y2="110.63" xlink:href="#Ny_övertoningsruta_1"/>
    <linearGradient id="Ny_övertoningsruta_1-4" data-name="Ny övertoningsruta 1" x1="518.19" y1="31.61" x2="-5.9" y2="181.75" xlink:href="#Ny_övertoningsruta_1"/>
    <linearGradient id="Ny_övertoningsruta_1-5" data-name="Ny övertoningsruta 1" x1="302.43" y1="-49.78" x2="-44.6" y2="49.64" xlink:href="#Ny_övertoningsruta_1"/>
    <linearGradient id="Ny_övertoningsruta_1-6" data-name="Ny övertoningsruta 1" x1="317.02" y1="1.16" x2="-30.01" y2="100.57" xlink:href="#Ny_övertoningsruta_1"/>
  </defs>
  <g id="Lager_1-2" data-name="Lager 1">
    <g>
      <g>
        <g>
          <rect class="cls-9" x="93.82" y="39.64" width="27.2" height="14.98"/>
          <rect class="cls-8" x="93.82" y="56.32" width="27.2" height="14.98"/>
        </g>
        <g>
          <rect class="cls-3" x="122.72" y="39.64" width="27.2" height="14.98"/>
          <rect class="cls-4" x="122.72" y="56.32" width="27.2" height="14.98"/>
        </g>
      </g>
      <rect class="cls-5" x=".61" y="134.3" width="297.01" height="6.09"/>
      <g>
        <polyline class="cls-1" points="145.44 .15 262.22 79.54 273.47 79.59 156.69 .2"/>
        <polyline class="cls-1" points="180.84 .15 297.62 79.54 288.43 79.54 171.65 .15"/>
        <g>
          <polygon class="cls-6" points="128.93 0 128.36 0 128.92 0 128.93 0"/>
          <polygon class="cls-7" points="130.23 0 128.92 0 128.36 0 117.47 .07 117.59 .15 117.4 .15 .61 79.54 12.15 79.39 119.27 6.57 127.03 6.57 234.26 79.54 247.02 79.47 130.23 0"/>
        </g>
      </g>
      <g>
        <path class="cls-2" d="m16.38,124.89c-3.59-4.75-6.37-8.45-8.68-11.05-1.45,2.84-2.95,6.14-4.69,10.42-.4,1.1-1.04,1.22-1.91.35-.64-.69-1.1-1.62-1.1-3.07,0-.81.12-1.85.4-2.89,1.45-5.03,6.54-15.57,11.63-23.49-1.91-.35-2.72-1.16-3.41-2.37-.46-.81-.17-1.27,1.04-1.45,2.31-.35,4.51-.98,6.6-1.68,2.2-.69,4.22-1.27,6.37-1.39,3.07-.12,5.9,1.16,7.35,4.8,1.56,3.88.35,7.17-1.79,10.13-2.95,3.99-8.91,7.52-15.22,9.14,2.08,2.49,4.05,5.27,5.15,7.41.52.98.81,2.08.81,3.01,0,.69-.23,1.39-.58,1.97-.64.98-1.27,1.1-1.97.17Zm.52-30.09c-.06,1.62-.75,3.65-2.2,6.37-1.56,2.89-3.01,5.32-4.05,7.12,11.57-2.95,17.24-10.59,15.74-14.41-.35-.93-.98-1.21-1.85-1.21-1.33,0-3.53.75-5.38,1.39l-2.26.75Z"/>
        <path class="cls-2" d="m29.89,102.68c.58-.83,1.12-.72,1.51.04.18.36.32.86.32,1.44,0,.97-.43,2.48-1.37,4.17-2.19,3.88-6.19,10.9-8.67,16.44-.29.68-.65.79-1.22.14-.36-.36-.65-1.01-.65-1.91,0-.5.14-1.37.43-2.23,1.87-4.89,6.8-14.03,9.64-18.1Z"/>
        <path class="cls-2" d="m42.09,117.29c.18.4.25.83.25,1.19,0,2.09-1.94,4.17-3.24,5.14-1.48,1.04-3.09,1.48-4.64,1.48-1.19,0-2.27-.25-3.17-.76-1.69-.9-3.17-3.17-3.24-6.12-.14-7.27,6.3-13.78,10.36-15.61.94-.36,1.94-.61,2.84-.61s1.73.25,2.34.76c1.22,1.08,2.16,2.48,2.16,3.89,0,.65-.14,1.37-.5,2.09-.61,1.22-1.11,2.45-1.37,3.24-.18.61-.68.97-1.4.54-.72-.47-1.22-1.26-1.22-2.3,0-.43.07-.86.22-1.33.14-.54.4-1.11.61-1.65.5-1.26.94-2.41.5-2.88-.86-.94-5.97,2.19-8.96,7.01-1.58,2.55-2.27,5.51-2.27,7.66,0,3.09,1.37,4.46,2.66,4.46,1.98,0,4.53-2.3,6.62-6.3.25-.5,1.08-.72,1.44.11Z"/>
        <path class="cls-2" d="m58.7,115.09c.76.4,1.15,1.01,1.3,1.58.11.47-.14.76-.83.65-.54-.07-1.04-.11-1.65-.11-1.15,2.27-2.34,4.71-3.53,7.34-.25.58-.86.76-1.26.11-.32-.5-.61-1.04-.61-1.83,0-.54.14-1.26.47-2.23.25-.68.72-1.87,1.3-3.06-2.23.29-4.53.72-6.15.72-1.04,2.16-2.09,4.46-3.13,6.76-.25.61-.9.79-1.33.18-.32-.43-.61-1.04-.61-1.87,0-1.04.36-2.12,1.87-5.68-.72-.4-1.01-.83-1.15-1.08-.36-.68-.14-.94.83-.86.54.04.76.11,1.15.11,2.23-4.64,5.5-10.61,7.02-12.77.58-.76,1.12-.65,1.51.04.22.4.32.86.32,1.48,0,1.01-.32,2.41-1.19,3.99l-3.85,7.02c2.27-.32,4.1-.79,6.08-.97,2.3-4.57,5.4-10.07,6.84-11.98.65-.83,1.19-.72,1.55.07.18.4.32.83.32,1.37,0,1.01-.36,2.37-1.4,4.17-2.27,4.03-3.06,5.43-3.85,6.87Z"/>
        <path class="cls-2" d="m70.17,121.67c0-.65,0-1.47.11-2.41l-2.52.25c-1.44.14-2.84.29-3.85.25-.97,1.69-1.76,3.49-2.59,4.96-.43.76-1.04.61-1.3.11-.22-.43-.43-.76-.43-1.33s.14-1.4.58-2.45c.22-.54.47-1.15.86-1.91-.65-.47-.97-.97-1.08-1.19-.29-.68-.14-.9.79-.76.5.07.79.11,1.3.14,2.7-4.71,7.66-11.66,11.44-14.86.79-.65,1.33-.61,1.87.11.36.47.58.86.83,1.48.18.43.29.83.29,1.26s-.07.94-.29,1.48c-.83,2.59-1.83,6.33-2.52,10.11.97.43,1.33,1.12,1.58,1.87.18.58-.07.72-.72.61l-1.26-.22c-.22,1.8-.4,3.63-.47,5.4,0,.65-.47.79-1.12.5-.79-.4-1.48-1.33-1.51-3.42Zm2.52-14.21c-2.3,2.77-4.89,6.22-7.16,9.75.72-.07,1.44-.14,2.12-.25,1.22-.14,2.01-.29,2.99-.32.43-2.99,1.15-6.48,2.05-9.17Z"/>
        <path class="cls-2" d="m85.42,125.13c-2.23-2.95-3.96-5.25-5.4-6.87-.9,1.76-1.83,3.81-2.91,6.48-.25.68-.65.76-1.19.22-.4-.43-.68-1.01-.68-1.91,0-.5.07-1.15.25-1.8.9-3.13,4.07-9.68,7.23-14.61-1.19-.22-1.69-.72-2.12-1.48-.29-.5-.11-.79.65-.9,1.44-.22,2.81-.61,4.1-1.04,1.37-.43,2.63-.79,3.96-.86,1.91-.07,3.67.72,4.57,2.99.97,2.41.22,4.46-1.12,6.3-1.83,2.48-5.54,4.68-9.46,5.68,1.29,1.55,2.52,3.27,3.2,4.61.32.61.5,1.3.5,1.87,0,.43-.14.86-.36,1.22-.4.61-.79.68-1.22.11Zm.32-18.71c-.04,1.01-.47,2.27-1.37,3.96-.97,1.8-1.87,3.31-2.52,4.43,7.2-1.84,10.72-6.58,9.79-8.96-.22-.58-.61-.76-1.15-.76-.83,0-2.19.47-3.35.86l-1.4.47Z"/>
        <path class="cls-2" d="m91.32,119.26c1.04-3.2,3.92-8.53,6.37-12.27-1.29-.18-1.94-1.04-2.16-1.58-.18-.54-.11-.83.65-.94,1.15-.14,2.23-.58,3.35-1.08,1.04-.47,2.05-.83,3.27-1.04,2.45-.4,4.21.76,5.68,3.2.54.9.83,2.34.83,3.6,0,5.79-5.72,13.24-13.64,15.9-.43.14-.79.22-1.19.22-1.15,0-1.83-.61-2.73-1.76-.65-.86-.94-1.37-.94-1.94,0-.61.18-1.3.5-2.3Zm9.17-12.66c.11.9-.18,2.23-1.01,3.71-2.81,4.71-4.89,8.45-5.65,11.08-.14.5-.18.79-.18,1.04,0,.32.18.4.54.25,7.95-3.02,12.38-10.54,12.38-14.82,0-.86-.14-1.51-.43-1.98-.36-.58-.9-.79-1.33-.79-1.11,0-3.2,1.12-4.32,1.51Z"/>
        <path class="cls-2" d="m112.65,109.12c-.47.58-.9.65-1.3.58-.36-.07-.61-.43-.4-.9.79-1.76,2.84-5.47,4.14-6.87.72-.79,1.26-.54,1.51.11.25.72-.07,1.62-.5,2.3-.83,1.29-2.48,3.63-3.45,4.79Z"/>
        <path class="cls-2" d="m110.45,119.59c.29-.07.68-.11,1.12-.11,1.04,0,2.05.29,2.81.9,1.4,1.15,3.78,2.95,5.86,2.95.79,0,1.51-.18,1.91-.58.54-.54.36-1.19-.04-1.51-2.59-2.01-7.59-3.96-7.59-7.63,0-4.89,5.61-9.17,8.85-10.54,1.19-.5,1.94-.61,2.77-.61s1.58.25,2.19.76c1.01.94,1.66,2.12,1.91,3.09.36,1.48-.54,2.91-1.08,3.71-.86,1.15-1.91,3.02-2.41,3.88-.32.58-.72.86-1.4.14-.5-.5-.86-1.12-.86-1.94s.47-2.16,1.65-3.74c.9-1.33,1.87-2.91,1.37-3.27-1.33-.97-9.21,4.32-9.39,8.45-.11,2.37,4.82,4.43,6.22,5.43.68.5,1.08,1.15,1.08,1.83,0,.83-.47,1.76-1.4,2.88-.94,1.08-2.7,1.83-4.86,1.83-2.63,0-6.12-1.48-8.96-4.75-.5-.61-.25-1.01.25-1.19Z"/>
        <path class="cls-2" d="m136.29,116.65c2.04-5.64,6.07-13.42,9.83-19.17-1.88-.27-2.9-1.45-3.33-2.31-.32-.75-.05-1.23,1.02-1.29,3.28-.21,8-2.79,12.13-3.17,3.76-.32,7.03,1.66,7.03,7.84,0,1.88-.97,4.08-2.31,5.8-1.34,1.83-4.29,4.4-7.78,6.12,1.61.97,2.9,2.68,2.9,4.78,0,1.5-.59,3.27-2.09,4.83-2.2,2.42-6.55,4.35-9.56,5.05-.75.16-1.61.21-2.26.21-.97,0-1.72-.16-2.52-.54-2.25-1.07-3.87-3.22-3.87-4.94,0-.64.32-1.99.8-3.22Zm15.73-2.68c0-.97-.97-1.83-3.38-2.04-2.04.43-4.08.54-5.21.21-1.34,2.63-2.63,5.37-3.38,7.73-.48,1.5-.05,2.04,1.07,1.88,3.11-.38,7.57-2.53,9.77-5.26.7-.86,1.13-1.77,1.13-2.52Zm-6.66-5.58c8.8-2.36,14.39-8.11,14.33-11.7,0-1.13-.91-1.83-1.83-1.83-1.45,0-3.65.81-7.14,1.99.05,1.18-.32,2.74-1.61,5.16-.59,1.13-1.34,2.42-3.76,6.39Z"/>
        <path class="cls-2" d="m160.36,124.98c-.25.68-.61.86-1.15.4-.47-.4-.86-1.3-.86-2.19,0-.54.07-1.15.25-1.76.4-1.19,1.19-3.06,2.19-5.11.07-4.24.32-9.79,1.01-13.09.18-.86.54-.94,1.12-.61.86.54,1.73,2.01,1.65,4.35-.07,1.98-.36,3.45-.5,6.04,3.24-3.49,7.63-7.73,10.4-10.25.65-.61,1.15-.5,1.3.07.25,1.08,0,2.91-2.16,5.04-4.14,3.92-6.73,6.37-9.97,9.86-1.33,2.63-2.55,5.22-3.27,7.27Z"/>
        <path class="cls-2" d="m187.84,117.9c-.54-.04-1.22-.04-2.01.04.72,3.35-3.63,6.55-5.47,7.05-.79.22-1.69.4-2.66.4-1.26,0-2.48-.29-3.6-1.15-1.37-.97-2.52-2.63-2.52-5.61,0-7.66,7.3-14.46,11.37-15.87,1.04-.36,1.83-.43,2.63-.43.94,0,1.83.25,2.45.68,1.73,1.26,2.19,2.95,2.19,3.92,0,.54-.14,1.19-.47,1.94-.4.94-.97,2.34-1.37,3.38-.18.47-.61.83-1.3.29-.68-.54-1.3-1.26-1.3-2.37,0-.4.04-.79.32-1.55,1.01-2.59,1.37-3.6.97-3.99-1.04-1.08-6.44,2.02-9.68,6.94-1.91,2.91-2.59,5.97-2.59,8.27,0,2.77.9,3.7,2.05,3.7,1.91,0,4.46-1.98,6.15-5.14-.94.18-1.8.29-2.52.36-1.87.14-3.24-.68-3.78-1.8-.22-.54-.04-.9.68-.9,1.44-.04,2.88-.29,4.21-.54,1.22-.18,2.34-.4,3.42-.4,1.98-.04,3.06.79,3.56,1.94.22.54.25.9-.76.83Z"/>
        <path class="cls-2" d="m205.83,117.9c-.54-.04-1.22-.04-2.01.04.72,3.35-3.63,6.55-5.47,7.05-.79.22-1.69.4-2.66.4-1.26,0-2.48-.29-3.6-1.15-1.37-.97-2.52-2.63-2.52-5.61,0-7.66,7.3-14.46,11.37-15.87,1.04-.36,1.83-.43,2.63-.43.94,0,1.83.25,2.45.68,1.73,1.26,2.19,2.95,2.19,3.92,0,.54-.14,1.19-.47,1.94-.4.94-.97,2.34-1.37,3.38-.18.47-.61.83-1.3.29-.68-.54-1.3-1.26-1.3-2.37,0-.4.04-.79.32-1.55,1.01-2.59,1.37-3.6.97-3.99-1.04-1.08-6.44,2.02-9.68,6.94-1.91,2.91-2.59,5.97-2.59,8.27,0,2.77.9,3.7,2.05,3.7,1.91,0,4.46-1.98,6.15-5.14-.94.18-1.8.29-2.52.36-1.87.14-3.24-.68-3.78-1.8-.22-.54-.04-.9.68-.9,1.44-.04,2.88-.29,4.21-.54,1.22-.18,2.34-.4,3.42-.4,1.98-.04,3.06.79,3.56,1.94.22.54.25.9-.76.83Z"/>
        <path class="cls-2" d="m204.82,119.59c.29-.07.68-.11,1.12-.11,1.04,0,2.05.29,2.81.9,1.4,1.15,3.78,2.95,5.86,2.95.79,0,1.51-.18,1.91-.58.54-.54.36-1.19-.04-1.51-2.59-2.01-7.59-3.96-7.59-7.63,0-4.89,5.61-9.17,8.85-10.54,1.19-.5,1.94-.61,2.77-.61s1.58.25,2.19.76c1.01.94,1.66,2.12,1.91,3.09.36,1.48-.54,2.91-1.08,3.71-.86,1.15-1.91,3.02-2.41,3.88-.32.58-.72.86-1.4.14-.5-.5-.86-1.12-.86-1.94s.47-2.16,1.65-3.74c.9-1.33,1.87-2.91,1.37-3.27-1.33-.97-9.21,4.32-9.39,8.45-.11,2.37,4.82,4.43,6.22,5.43.68.5,1.08,1.15,1.08,1.83,0,.83-.47,1.76-1.4,2.88-.94,1.08-2.7,1.83-4.86,1.83-2.63,0-6.12-1.48-8.96-4.75-.5-.61-.25-1.01.25-1.19Z"/>
        <path class="cls-2" d="m221.25,121.46c1.62-4.24,5.07-10.76,8.06-15.4-.83-.54-1.26-1.12-1.44-1.8-.11-.5.29-.72.83-.72,1.98,0,3.89-.22,5.61-.5,1.22-.18,2.23-.36,3.17-.36,1.66-.04,2.55.61,3.02,1.87.14.4-.11.72-.79.72-1.8,0-3.74.36-5.43.68-.54.11-.9.18-1.44.25-1.19,1.8-2.84,4.79-4.53,7.84.76-.11,1.37-.14,1.87-.18,1.98-.07,2.91.58,3.31,1.73.18.47.11.83-.72.83-1.76,0-4.28.43-6.22.94-1.01,1.91-1.76,3.38-2.48,5,1.47-.4,3.74-.79,4.89-.86,1.94-.07,2.95.5,3.38,1.69.18.5.07.79-.68.79-1.91-.04-5.76.9-7.74,1.44-.86.25-1.44.25-1.91-.43-.25-.36-.5-.94-.9-1.58-.29-.47-.22-.94.14-1.94Z"/>
        <path class="cls-2" d="m245.71,125.13c-2.23-2.95-3.96-5.25-5.4-6.87-.9,1.76-1.83,3.81-2.91,6.48-.25.68-.65.76-1.19.22-.4-.43-.68-1.01-.68-1.91,0-.5.07-1.15.25-1.8.9-3.13,4.07-9.68,7.23-14.61-1.19-.22-1.69-.72-2.12-1.48-.29-.5-.11-.79.65-.9,1.44-.22,2.81-.61,4.1-1.04,1.37-.43,2.63-.79,3.96-.86,1.91-.07,3.67.72,4.57,2.99.97,2.41.22,4.46-1.12,6.3-1.83,2.48-5.54,4.68-9.46,5.68,1.29,1.55,2.52,3.27,3.2,4.61.32.61.5,1.3.5,1.87,0,.43-.14.86-.36,1.22-.4.61-.79.68-1.22.11Zm.32-18.71c-.04,1.01-.47,2.27-1.37,3.96-.97,1.8-1.87,3.31-2.52,4.43,7.2-1.84,10.72-6.58,9.79-8.96-.22-.58-.61-.76-1.15-.76-.83,0-2.19.47-3.35.86l-1.4.47Z"/>
        <path class="cls-2" d="m256.68,120.05c3.71-5.72,10.11-14.07,13.2-17.34.47-.47.86-.43,1.12.07.58,1.08.07,3.17-3.89,8.27-2.84,3.63-6.94,9.32-10.18,13.96-.4.58-.79.79-1.55.25-1.19-.9-1.8-1.98-1.8-3.74,0-.36.04-.76.07-1.19.61-5.47,2.37-13.74,3.67-17.2.4-.94.86-1.01,1.44-.29.4.5.79,1.37.79,2.41,0,.76-.11,1.65-.36,2.77-.83,3.6-1.66,7.34-2.52,12.02Z"/>
        <path class="cls-2" d="m275.06,102.68c.58-.83,1.12-.72,1.51.04.18.36.32.86.32,1.44,0,.97-.43,2.48-1.37,4.17-2.19,3.88-6.19,10.9-8.67,16.44-.29.68-.65.79-1.22.14-.36-.36-.65-1.01-.65-1.91,0-.5.14-1.37.43-2.23,1.87-4.89,6.8-14.03,9.64-18.1Z"/>
        <path class="cls-2" d="m287.25,117.29c.18.4.25.83.25,1.19,0,2.09-1.94,4.17-3.24,5.14-1.48,1.04-3.09,1.48-4.64,1.48-1.19,0-2.27-.25-3.17-.76-1.69-.9-3.17-3.17-3.24-6.12-.14-7.27,6.3-13.78,10.36-15.61.94-.36,1.94-.61,2.84-.61s1.73.25,2.34.76c1.22,1.08,2.16,2.48,2.16,3.89,0,.65-.14,1.37-.5,2.09-.61,1.22-1.11,2.45-1.37,3.24-.18.61-.68.97-1.4.54-.72-.47-1.22-1.26-1.22-2.3,0-.43.07-.86.22-1.33.14-.54.4-1.11.61-1.65.5-1.26.94-2.41.5-2.88-.86-.94-5.97,2.19-8.96,7.01-1.58,2.55-2.27,5.51-2.27,7.66,0,3.09,1.37,4.46,2.66,4.46,1.98,0,4.53-2.3,6.62-6.3.25-.5,1.08-.72,1.44.11Z"/>
        <path class="cls-2" d="m288.25,121.46c1.62-4.24,5.07-10.76,8.06-15.4-.83-.54-1.26-1.12-1.44-1.8-.11-.5.29-.72.83-.72,1.98,0,3.89-.22,5.61-.5,1.22-.18,2.23-.36,3.17-.36,1.66-.04,2.55.61,3.02,1.87.14.4-.11.72-.79.72-1.8,0-3.74.36-5.43.68-.54.11-.9.18-1.44.25-1.19,1.8-2.84,4.79-4.53,7.84.76-.11,1.37-.14,1.87-.18,1.98-.07,2.91.58,3.31,1.73.18.47.11.83-.72.83-1.76,0-4.28.43-6.22.94-1.01,1.91-1.76,3.38-2.48,5,1.47-.4,3.74-.79,4.89-.86,1.94-.07,2.95.5,3.38,1.69.18.5.07.79-.68.79-1.91-.04-5.76.9-7.74,1.44-.86.25-1.44.25-1.91-.43-.25-.36-.5-.94-.9-1.58-.29-.47-.22-.94.14-1.94Z"/>
      </g>
    </g>
  </g>
</svg>